<svg width="16" height="17" viewBox="0 0 16 17" fill="none" xmlns="http://www.w3.org/2000/svg">
<path fill-rule="evenodd" clip-rule="evenodd" d="M8 0.950001L14.61 4H15.5C15.7761 4 16 4.22386 16 4.5V6.5C16 6.77614 15.7761 7 15.5 7H15V14C15.2295 14.0001 15.4295 14.1563 15.485 14.379L15.985 16.379C16.0222 16.5283 15.9886 16.6865 15.8939 16.8078C15.7992 16.929 15.6539 17 15.5 17H0.5C0.346105 17 0.200803 16.929 0.106078 16.8078C0.0113523 16.6865 -0.0222426 16.5283 0.015 16.379L0.515 14.379C0.570535 14.1563 0.770515 14.0001 1 14V7H0.5C0.223858 7 0 6.77614 0 6.5V4.5C0 4.22386 0.223858 4 0.5 4H1.39L8 0.950001ZM3.776 4H12.223L8 2.05L3.776 4ZM2 14V7H3V14H2ZM4 7V14H6.5V7H4ZM7.5 14V7H8.5V14H7.5ZM9.5 7V14H12V7H9.5ZM13 14V7H14V14H13ZM15 6V5H1V6H15ZM1.14 16L1.39 15H14.61L14.86 16H1.14Z" fill="black"/>
</svg>
